HIERARCHY
ROOT Hips
{
	OFFSET -0.001795 -0.223333 0.028219
	CHANNELS 6 Xposition Yposition Zposition Zrotation Yrotation Xrotation 
	JOINT LeftUpLeg
	{
		OFFSET 0.069520 -0.091406 -0.006815
		CHANNELS 3 Zrotation Yrotation Xrotation
		JOINT LeftLeg
		{
			OFFSET 0.034277 -0.375199 -0.004496
			CHANNELS 3 Zrotation Yrotation Xrotation
			JOINT LeftFoot
			{
				OFFSET -0.013596 -0.397961 -0.043693
				CHANNELS 3 Zrotation Yrotation Xrotation
				JOINT LeftToe
				{
					OFFSET 0.026358 -0.055791 0.119288
					CHANNELS 3 Zrotation Yrotation Xrotation
					End Site
					{
						OFFSET 0.000000 0.000000 0.000000
					}
				}
			}
		}
	}
	JOINT RightUpLeg
	{
		OFFSET -0.067670 -0.090522 -0.004320
		CHANNELS 3 Zrotation Yrotation Xrotation
		JOINT RightLeg
		{
			OFFSET -0.038290 -0.382569 -0.008850
			CHANNELS 3 Zrotation Yrotation Xrotation
			JOINT RightFoot
			{
				OFFSET 0.015774 -0.398415 -0.042312
				CHANNELS 3 Zrotation Yrotation Xrotation
				JOINT RightToe
				{
					OFFSET -0.025372 -0.048144 0.123348
					CHANNELS 3 Zrotation Yrotation Xrotation
					End Site
					{
						OFFSET 0.000000 0.000000 0.000000
					}
				}
			}
		}
	}
	JOINT Spine
	{
		OFFSET -0.002533 0.108963 -0.026696
		CHANNELS 3 Zrotation Yrotation Xrotation
		JOINT Spine1
		{
			OFFSET 0.005487 0.135180 0.001092
			CHANNELS 3 Zrotation Yrotation Xrotation
			JOINT Spine2
			{
				OFFSET 0.001457 0.052922 0.025425
				CHANNELS 3 Zrotation Yrotation Xrotation
				JOINT Neck
				{
					OFFSET -0.002778 0.213870 -0.042857
					CHANNELS 3 Zrotation Yrotation Xrotation
					JOINT Head
					{
						OFFSET 0.005152 0.064970 0.051349
						CHANNELS 3 Zrotation Yrotation Xrotation
						End Site
						{
							OFFSET 0.000000 0.000000 0.000000
						}
					}
				}
				JOINT LeftShoulder
				{
					OFFSET 0.078845 0.121749 -0.034090
					CHANNELS 3 Zrotation Yrotation Xrotation
					JOINT LeftArm
					{
						OFFSET 0.090977 0.030469 -0.008868
						CHANNELS 3 Zrotation Yrotation Xrotation
						JOINT LeftForeArm
						{
							OFFSET 0.259612 -0.012772 -0.027456
							CHANNELS 3 Zrotation Yrotation Xrotation
							JOINT LeftHand
							{
								OFFSET 0.249234 0.008986 -0.001171
								CHANNELS 3 Zrotation Yrotation Xrotation
								End Site
								{
									OFFSET 0.000000 0.000000 0.000000
								}
							}
						}
					}
				}
				JOINT RightShoulder
				{
					OFFSET -0.081759 0.118833 -0.038615
					CHANNELS 3 Zrotation Yrotation Xrotation
					JOINT RightArm
					{
						OFFSET -0.096012 0.032551 -0.009143
						CHANNELS 3 Zrotation Yrotation Xrotation
						JOINT RightForeArm
						{
							OFFSET -0.253742 -0.013329 -0.021401
							CHANNELS 3 Zrotation Yrotation Xrotation
							JOINT RightHand
							{
								OFFSET -0.255298 0.007772 -0.005559
								CHANNELS 3 Zrotation Yrotation Xrotation
								End Site
								{
									OFFSET 0.000000 0.000000 0.000000
								}
							}
						}
					}
				}
			}
		}
	}
}
MOTION
Frames: 17
Frame Time: 0.050000
0.000000 0.897093 0.000000 -1.382419 -1.703850 4.195896 3.860369 0.261206 5.569963 -3.197876 0.332292 16.090543 5.131061 10.130932 -3.207133 0.000000 0.000000 0.000000 -5.623447 2.011971 -32.117585 8.812797 -1.527358 17.847019 -6.023475 -16.719285 14.575206 0.000000 0.000000 0.000000 7.626844 -2.342066 20.540247 -4.103870 1.490241 -28.616429 -4.780123 -1.081004 27.547913 14.199009 -5.881563 -31.837900 0.000000 0.000000 0.000000 -23.868821 -5.466657 2.698955 -40.063762 -6.276050 -5.054376 -18.813662 -33.210815 7.406449 0.000000 0.000000 0.000000 35.897334 -3.263551 -6.345940 43.470867 2.950040 -4.903163 7.655613 23.789500 2.419408 0.000000 0.000000 0.000000 
-0.015783 0.899781 0.037813 -1.457676 -1.949067 5.677364 5.499014 0.083527 4.380837 -4.179005 0.643537 19.249419 4.175570 9.404940 2.546148 0.000000 0.000000 0.000000 -4.111720 2.494588 -33.003554 8.209781 -1.445684 21.161722 -5.885665 -16.444522 13.391584 0.000000 0.000000 0.000000 7.898384 -2.358215 19.893606 -3.297067 1.322172 -28.259154 -4.840648 -1.749174 25.368883 13.185285 -5.531322 -30.757160 0.000000 0.000000 0.000000 -24.665419 -4.721735 2.420062 -40.839927 -4.988745 -5.405064 -18.572455 -34.341418 7.666078 0.000000 0.000000 0.000000 34.175541 -3.362234 -6.578183 44.758953 1.638363 -5.174624 8.131605 24.735505 2.557956 0.000000 0.000000 0.000000 
-0.031585 0.904025 0.074976 -1.889111 -2.574004 5.993864 7.704665 -0.083793 2.549803 -5.148428 1.122737 24.728901 3.122194 8.884909 9.273212 0.000000 0.000000 0.000000 -2.716236 2.877145 -32.597705 8.689460 -1.627591 24.258687 -5.907322 -16.385472 11.542965 0.000000 0.000000 0.000000 9.840394 -2.512670 18.056367 -4.247137 1.500816 -27.401775 -5.080974 -0.616092 25.538843 12.359961 -4.800423 -31.893178 0.000000 0.000000 0.000000 -24.900786 -4.833046 2.241102 -40.060130 -4.957701 -5.265891 -18.714346 -33.284731 7.362530 0.000000 0.000000 0.000000 33.704303 -4.876487 -7.248639 44.564577 2.672231 -4.936143 10.574978 23.896952 2.968454 0.000000 0.000000 0.000000 
-0.046230 0.912514 0.109701 -2.243111 -4.421412 6.011157 10.241558 -0.141682 -1.010501 -8.802298 3.192977 32.172347 4.916078 12.906967 17.732330 0.000000 0.000000 0.000000 -1.282209 3.181480 -30.703072 8.966036 -1.559661 25.014180 -5.090216 -15.002237 10.985473 0.000000 0.000000 0.000000 10.191560 -2.578469 18.669378 -3.756265 1.389814 -29.199313 -5.225244 1.130939 26.123481 12.011891 -4.425793 -32.632545 0.000000 0.000000 0.000000 -25.646120 -5.577492 2.542345 -39.400652 -3.414114 -5.643369 -18.762971 -35.689818 7.903860 0.000000 0.000000 0.000000 33.759870 -4.242549 -6.502099 43.655850 3.661501 -4.653817 11.779140 23.312015 3.128320 0.000000 0.000000 0.000000 
-0.058606 0.918783 0.141738 -2.153492 -4.821556 4.661113 11.982425 -0.023247 -5.243556 -11.503421 5.309151 39.548148 9.177075 18.965963 22.529000 0.000000 0.000000 0.000000 0.518795 3.028458 -26.232456 7.393917 -1.004859 24.028938 -4.858297 -14.243302 9.085655 0.000000 0.000000 0.000000 9.663116 -2.540369 19.751198 -3.717514 1.384166 -29.271229 -4.524546 1.275380 26.080113 12.758303 -5.106222 -31.289935 0.000000 0.000000 0.000000 -27.423804 -5.311607 2.383172 -37.878471 -4.199403 -5.260822 -18.854393 -36.171888 8.029486 0.000000 0.000000 0.000000 32.163833 -3.470098 -5.614191 44.005952 5.087357 -4.265046 13.628345 22.967306 3.422551 0.000000 0.000000 0.000000 
-0.068069 0.923487 0.171288 -1.641022 -5.744200 4.048765 11.843407 0.094982 -9.316322 -14.097576 7.315938 42.350706 13.397951 24.743401 16.939482 0.000000 0.000000 0.000000 0.904307 2.702614 -22.994699 6.914482 -0.777429 23.150118 -4.423231 -13.141447 7.634690 0.000000 0.000000 0.000000 8.688300 -2.356920 20.414409 -3.337821 1.324191 -30.113039 -4.282973 2.556735 26.775971 13.146199 -5.073534 -32.256576 0.000000 0.000000 0.000000 -27.899299 -6.848358 3.147319 -37.527031 -4.718367 -5.077600 -17.524473 -37.152456 7.738018 0.000000 0.000000 0.000000 32.162556 -3.082969 -4.976393 43.353476 6.730850 -3.853474 13.455544 24.086292 3.610796 0.000000 0.000000 0.000000 
-0.075128 0.928085 0.198992 -1.379561 -6.657911 3.130413 11.335828 0.185927 -12.937010 -15.306417 8.008947 41.324519 14.746936 27.467735 10.611027 0.000000 0.000000 0.000000 1.764087 2.356112 -19.361010 5.653620 -0.351150 21.983366 -3.955391 -11.954995 6.557829 0.000000 0.000000 0.000000 8.050244 -2.237001 21.216241 -2.877646 1.234148 -29.932301 -3.958308 3.775366 26.439168 13.571178 -5.201682 -32.156971 0.000000 0.000000 0.000000 -27.883626 -7.054252 2.969288 -38.069514 -4.557514 -5.094190 -17.014934 -37.942242 7.688208 0.000000 0.000000 0.000000 31.385852 -2.436819 -4.080992 42.704392 8.461148 -3.341369 14.064697 25.807407 4.052371 0.000000 0.000000 0.000000 
-0.080084 0.930008 0.224977 -1.028568 -7.634686 2.965310 11.187032 0.343455 -17.498231 -16.057223 7.972566 37.939990 15.996514 29.385627 9.955717 0.000000 0.000000 0.000000 1.922885 2.036005 -16.852835 4.989756 -0.123801 20.991956 -3.579750 -10.830801 5.265479 0.000000 0.000000 0.000000 7.107337 -2.012796 21.387499 -2.370577 1.133660 -29.920047 -3.396826 5.450916 26.303159 14.080260 -5.334963 -31.959463 0.000000 0.000000 0.000000 -28.831099 -7.817022 3.024716 -37.427382 -4.193511 -4.989541 -17.269891 -38.417765 7.787730 0.000000 0.000000 0.000000 30.888283 -2.388559 -3.521811 41.784086 10.066431 -2.907586 15.095966 28.614807 4.860338 0.000000 0.000000 0.000000 
-0.083476 0.930839 0.249740 -1.026923 -9.001323 2.381818 10.854045 0.521467 -21.297686 -15.726963 6.835389 31.550977 16.615222 30.045659 10.521359 0.000000 0.000000 0.000000 2.237966 1.697895 -14.141163 4.398863 0.094881 20.312139 -3.074650 -9.378009 4.117253 0.000000 0.000000 0.000000 6.659357 -1.893552 22.101503 -2.373544 1.130638 -30.109464 -2.603629 6.708387 26.702033 14.203602 -5.187594 -32.748545 0.000000 0.000000 0.000000 -29.112453 -7.173417 2.421880 -37.590848 -3.945795 -5.059196 -16.740821 -38.618130 7.624286 0.000000 0.000000 0.000000 30.214724 -2.070341 -3.013491 40.384975 12.437008 -2.225069 15.302727 31.061136 5.407994 0.000000 0.000000 0.000000 
-0.085818 0.929452 0.274827 -1.299377 -10.162254 2.162581 10.674858 0.700266 -23.994843 -14.898900 5.234093 23.510262 16.065067 28.882751 11.465180 0.000000 0.000000 0.000000 2.535766 1.409135 -11.910979 4.080455 0.223991 19.879821 -2.765329 -8.147483 2.745415 0.000000 0.000000 0.000000 6.041977 -1.742627 22.694904 -1.677712 0.981276 -29.841066 -1.940651 8.312853 26.120651 14.642467 -5.365000 -32.073425 0.000000 0.000000 0.000000 -29.794230 -7.820084 2.410611 -36.868367 -3.104260 -5.030631 -16.665065 -38.436486 7.461505 0.000000 0.000000 0.000000 29.260878 -1.884705 -2.445683 39.488495 14.256588 -1.696302 16.294305 34.078514 6.353514 0.000000 0.000000 0.000000 
-0.087503 0.926730 0.301475 -1.756953 -11.951671 1.744525 9.955486 0.766749 -25.525542 -12.646619 3.017230 11.819820 21.198547 32.007424 25.033250 0.000000 0.000000 0.000000 3.168395 1.065862 -9.261497 3.133950 0.525497 19.361001 -2.353030 -6.351727 0.997837 0.000000 0.000000 0.000000 5.571930 -1.586653 23.670383 -1.338683 0.914403 -29.867206 -1.624725 9.738558 26.250236 15.919865 -6.026909 -31.908454 0.000000 0.000000 0.000000 -28.755093 -7.075927 1.793846 -37.949808 -2.904006 -5.215777 -15.518926 -37.851383 6.933793 0.000000 0.000000 0.000000 28.760479 -1.612479 -2.055715 38.626166 16.491885 -1.090060 17.189088 36.885737 7.279196 0.000000 0.000000 0.000000 
-0.088496 0.921234 0.330541 -2.111494 -13.418497 0.750692 9.410231 0.779711 -25.557827 -10.199440 1.516043 0.514190 23.815683 31.695623 36.846427 0.000000 0.000000 0.000000 2.946555 0.576225 -5.732407 3.151055 0.543237 18.681439 -2.224499 -4.606658 -1.418035 0.000000 0.000000 0.000000 4.822560 -1.362922 24.927254 -0.805299 0.830403 -30.385764 -0.847113 10.747649 26.954953 16.017515 -6.366462 -30.715326 0.000000 0.000000 0.000000 -28.771536 -7.025621 1.705212 -37.904506 -2.085561 -5.467356 -14.703178 -36.790733 6.427257 0.000000 0.000000 0.000000 28.056513 -1.436774 -1.790113 38.695805 17.837917 -0.745028 17.244563 39.119079 7.843877 0.000000 0.000000 0.000000 
-0.088937 0.914528 0.362018 -2.496659 -14.491947 0.406601 8.618148 0.667377 -25.492686 -8.210787 1.021545 -4.155509 22.331495 29.445903 40.800792 0.000000 0.000000 0.000000 2.991924 0.209986 -2.887577 2.525244 0.704616 18.264472 -2.395721 -3.394947 -3.821393 0.000000 0.000000 0.000000 4.298348 -1.190711 25.650865 -0.790756 0.766759 -29.549858 -0.866294 11.388498 25.793976 16.819941 -6.978124 -29.691864 0.000000 0.000000 0.000000 -27.994952 -6.782514 1.490113 -37.935883 -1.146725 -5.649212 -13.494261 -35.585719 5.769386 0.000000 0.000000 0.000000 28.849260 -0.992420 -1.576682 37.997734 17.240337 -0.847470 18.642794 42.183347 9.060899 0.000000 0.000000 0.000000 
-0.089060 0.906191 0.395774 -3.305810 -16.220067 0.376126 9.821633 1.146329 -25.331982 -9.136420 1.217224 -3.077330 24.267971 30.547375 43.043998 0.000000 0.000000 0.000000 2.453607 -0.029294 -0.790370 3.161071 0.677881 18.936508 -2.281534 -1.507345 -5.737512 0.000000 0.000000 0.000000 3.433007 -0.886218 26.338557 0.215360 0.547112 -29.318144 -0.821384 13.400825 25.965396 16.839489 -6.800275 -29.738927 0.000000 0.000000 0.000000 -27.088082 -6.599250 1.038253 -38.309899 -1.308659 -5.585256 -12.041889 -32.986980 4.823905 0.000000 0.000000 0.000000 29.357390 -1.501154 -1.551512 38.065460 18.001184 -0.755113 19.594641 42.022171 9.505492 0.000000 0.000000 0.000000 
-0.089297 0.898511 0.431920 -3.739017 -16.630437 0.671581 10.589288 1.472531 -26.161907 -11.029227 1.742987 0.506794 27.593176 32.878392 44.904041 0.000000 0.000000 0.000000 2.543588 -0.173572 0.473203 2.828714 0.974735 21.249822 -3.046055 -2.225450 -7.527765 0.000000 0.000000 0.000000 2.761323 -0.715968 25.866098 0.294667 0.508156 -29.076639 -0.788487 13.294798 26.313276 16.644951 -6.707371 -30.025834 0.000000 0.000000 0.000000 -27.642021 -5.967337 0.776118 -38.127583 -0.506214 -5.858725 -10.624416 -31.841548 4.270127 0.000000 0.000000 0.000000 30.502463 -1.311937 -1.662196 37.741798 17.499156 -0.908669 20.469393 41.454441 9.615568 0.000000 0.000000 0.000000 
-0.089343 0.893596 0.470432 -3.680424 -17.139611 1.370736 12.042636 2.086500 -27.486098 -14.810400 3.035881 5.411344 30.064668 35.282287 43.177187 0.000000 0.000000 0.000000 2.286866 -0.118510 0.002680 2.609538 1.517597 25.635116 -3.604807 -4.405556 -6.737787 0.000000 0.000000 0.000000 1.370796 -0.392042 24.500941 0.174220 0.526923 -28.966945 -0.419279 13.820211 27.039245 14.950565 -5.741927 -29.914772 0.000000 0.000000 0.000000 -27.262627 -5.847290 0.745355 -38.795807 -0.299489 -6.068732 -10.104357 -30.226314 3.920174 0.000000 0.000000 0.000000 32.050199 -1.042904 -1.498096 38.142265 16.576262 -1.279037 21.008307 39.024028 9.214910 0.000000 0.000000 0.000000 
-0.088065 0.893059 0.511398 -3.273109 -15.480635 1.744309 11.372613 1.768284 -28.464105 -16.539589 4.022678 9.966399 30.499623 36.953220 39.220775 0.000000 0.000000 0.000000 1.010629 0.045085 -1.026215 4.951839 1.187652 31.330194 -4.021641 -8.779937 -1.695914 0.000000 0.000000 0.000000 0.231051 -0.272742 22.574765 0.365497 0.496876 -28.787143 -0.827861 13.790507 27.248084 14.271586 -5.244908 -29.779721 0.000000 0.000000 0.000000 -26.915259 -6.242887 0.693760 -38.946071 0.637154 -6.266695 -8.919586 -29.131291 3.417640 0.000000 0.000000 0.000000 33.370003 -1.720031 -1.687485 39.520354 14.824142 -1.927982 20.356789 35.060617 8.043729 0.000000 0.000000 0.000000 
